<?xml version="1.0" encoding="iso-8859-1"?>
<!-- Uploaded to: SVG Repo, www.svgrepo.com, Generator: SVG Repo Mixer Tools -->
<!DOCTYPE svg PUBLIC "-//W3C//DTD SVG 1.1//EN" "http://www.w3.org/Graphics/SVG/1.1/DTD/svg11.dtd">
<svg fill="#000000" height="800px" width="800px" version="1.1" id="Capa_1" xmlns="http://www.w3.org/2000/svg" xmlns:xlink="http://www.w3.org/1999/xlink" 
	 viewBox="0 0 295.614 295.614" xml:space="preserve">
<g>
	<path d="M293.47,253.955L161.663,25.658c-2.858-4.95-8.141-8-13.856-8s-10.998,3.05-13.856,8L2.144,253.955
		c-2.858,4.95-2.858,11.05,0,16s8.141,8,13.856,8h263.613c5.716,0,10.998-3.05,13.857-8S296.328,258.906,293.47,253.955z
		 M180.759,129.238l-25.509,36.718h18.532c1.424,0,2.74,0.757,3.457,1.987c0.716,1.23,0.725,2.749,0.021,3.987l-43.703,76.974
		c-0.729,1.283-2.075,2.026-3.48,2.026c-0.466,0-0.939-0.082-1.398-0.253c-1.84-0.686-2.909-2.608-2.523-4.534l11.058-55.188
		h-27.074c-1.262,0-2.449-0.595-3.204-1.605c-0.755-1.011-0.989-2.317-0.632-3.527l17.722-60c0.502-1.7,2.063-2.867,3.836-2.867
		h49.611c1.489,0,2.854,0.827,3.545,2.146C181.708,126.421,181.609,128.015,180.759,129.238z"/>
</g>
</svg>