<?xml version="1.0" encoding="UTF-8" standalone="no"?>
<svg
   version="1.1"
   x="0px"
   y="0px"
   viewBox="0 0 80 125"
   xml:space="preserve"
   id="svg7"
   sodipodi:docname="noun-draw-card-207632.svg"
   inkscape:version="1.3 (0e150ed6c4, 2023-07-21)"
   width="80"
   height="125"
   xmlns:inkscape="http://www.inkscape.org/namespaces/inkscape"
   xmlns:sodipodi="http://sodipodi.sourceforge.net/DTD/sodipodi-0.dtd"
   xmlns="http://www.w3.org/2000/svg"
   xmlns:svg="http://www.w3.org/2000/svg"><defs
     id="defs7" /><sodipodi:namedview
     id="namedview7"
     pagecolor="#ffffff"
     bordercolor="#000000"
     borderopacity="0.25"
     inkscape:showpageshadow="2"
     inkscape:pageopacity="0.0"
     inkscape:pagecheckerboard="0"
     inkscape:deskcolor="#d1d1d1"
     inkscape:zoom="4.3953758"
     inkscape:cx="-11.944371"
     inkscape:cy="56.081667"
     inkscape:window-width="1920"
     inkscape:window-height="991"
     inkscape:window-x="2391"
     inkscape:window-y="-9"
     inkscape:window-maximized="1"
     inkscape:current-layer="svg7" /><path
     d="m 45.357783,58.620356 0.136726,0.410174 c 0,1.777426 0.136725,4.101752 0.273449,4.922102 0.957076,5.605728 9.70748,6.015903 11.89508,6.426078 2.187601,0.410176 4.101752,-1.503976 4.101752,-1.503976 0,0 -6.972978,-5.879177 -9.023853,-7.246428 -2.050877,-1.367251 -7.383154,-3.00795 -7.383154,-3.00795 z"
     id="path1"
     style="fill:#ffe4c4;fill-opacity:1;stroke:#000000;stroke-width:0.683626;stroke-dasharray:none;stroke-opacity:1" /><path
     d="m 31.685278,67.644209 c 0.683626,-1.503976 1.230525,-3.144677 1.777425,-4.511927 0.273451,-0.5469 -0.136724,-1.093801 -0.683625,-1.230526 -1.914151,-0.136724 -4.511926,-0.410174 -5.058827,0 -1.91415,1.36725 -2.461051,3.965027 -0.957075,5.879177 0.683626,0.820351 1.914151,1.093801 3.281401,1.093801 0.683626,0 1.367251,-0.5469 1.640701,-1.230525 z"
     id="path2"
     style="fill:#ffe4c4;fill-opacity:1;stroke:#000000;stroke-width:0.683626;stroke-dasharray:none;stroke-opacity:1" /><path
     d="m 34.556504,60.261055 c 0.5469,-1.367249 0.82035,-2.46105 0.957075,-2.871226 0.136726,-1.0938 0.82035,-1.914151 -1.230525,-2.46105 0,0 -2.324326,-1.230526 -3.965026,-0.273451 -1.640701,0.957076 -3.281402,4.511927 -0.546901,5.469003 0.410176,0.136724 2.050875,0.5469 3.281402,0.82035 0.683625,0.27345 1.230525,0 1.503975,-0.683626 z"
     id="path3"
     style="fill:#ffe4c4;fill-opacity:1;stroke:#000000;stroke-width:0.683626;stroke-dasharray:none;stroke-opacity:1" /><path
     d="m 29.224228,69.695084 c -1.777426,0.273451 -3.007952,1.914151 -2.734502,3.554852 0.136726,0.957075 0.683625,1.91415 1.367251,2.597776 0.410175,0.273449 0.957075,0.136725 1.093799,-0.27345 0.410176,-1.230526 1.093801,-3.144676 1.914151,-5.332277 0.136725,-0.410175 -0.136724,-0.683625 -0.546899,-0.683625 z"
     id="path4"
     style="fill:#ffe4c4;fill-opacity:1;stroke:#000000;stroke-width:0.683626;stroke-dasharray:none;stroke-opacity:1" /><path
     d="m 71.062094,59.03053 c -1.503976,-2.597776 -7.246429,-8.887129 -9.160579,-10.254379 -0.5469,-0.410175 -0.957076,-0.683626 -1.367251,-1.0938 l -3.00795,7.930053 c -0.136725,0.410176 -0.410176,0.82035 -0.683626,1.0938 1.230525,1.6407 2.324327,3.144677 2.597777,3.418127 0.410174,0.410176 4.3752,6.562803 3.554851,9.297303 -0.820351,2.734502 -6.562803,2.050876 -6.562803,2.050876 -0.410176,-0.273449 -10.938004,-0.820351 -11.89508,-6.426077 -0.273449,-1.367251 -0.410176,-7.109703 -0.410176,-7.109703 0,0 1.914151,-3.691577 1.914151,-5.605727 0.136726,-1.640701 -0.410174,-3.691576 -0.820349,-5.058828 0,-0.136725 -0.136726,-0.410175 -0.136726,-0.410175 -1.0938,-1.640701 -3.418126,-1.91415 -4.922101,-0.82035 l -0.136726,0.136725 c -0.957075,1.503976 -2.1876,3.965026 -2.461051,5.332278 -0.27345,1.230525 -0.136725,3.00795 -1.503975,6.289352 -1.777426,4.238476 -2.734501,7.519878 -3.691576,9.980928 -0.683626,2.187602 -2.734502,7.246429 -3.418128,9.023854 0,0 0,0 0,0 -1.503974,3.554852 -2.46105,6.562803 -2.871226,8.887129 -0.273449,2.187601 0.820351,4.785377 2.187602,8.340228 0.27345,0.683626 0.27345,1.503976 0,2.187601 -1.230526,4.375195 -3.965027,6.015905 -3.965027,6.015905 -3.691577,3.14467 0.82035,18.59461 11.484905,21.60255 1.914151,0.54691 4.785377,0 6.972978,-0.5469 8.887129,-11.4849 29.122436,-34.591433 33.224188,-38.693185 1.91415,-1.914151 4.375202,-7.656602 1.503976,-13.399054 C 75.847471,67.780933 72.29262,61.081406 71.062094,59.03053 Z"
     id="path5"
     style="fill:#ffe4c4;fill-opacity:1;stroke:#000000;stroke-width:0.683626;stroke-dasharray:none;stroke-opacity:1" /><path
     d="m 36.333929,52.057553 c 0.410176,-1.640701 2.187602,-4.922103 3.418128,-6.836254 l 0.136724,-0.136724 c 2.050876,-1.36725 4.922102,-0.957075 6.289353,0.957075 0,0.136725 0.136725,0.410175 0.27345,0.546901 0.5469,1.777425 1.093801,4.238476 0.957075,6.152627 0,0.683625 -0.82035,3.00795 -0.82035,3.00795 l 3.554852,1.777426 c 2.324325,0.82035 4.922101,-0.273449 5.742452,-2.597775 L 67.507242,24.302366 c 0.82035,-2.324326 -0.273449,-4.922102 -2.597775,-5.742452 L 19.243298,1.3325568 c -2.324326,-0.82035037 -4.922101,0.27345 -5.742452,2.597776 L 1.879216,34.556745 c -0.82035,2.324326 0.273452,4.922102 2.5977767,5.742452 0,-0.136724 31.7202123,12.168531 31.8569363,11.758356 z"
     id="path6"
     style="fill:#f7851d;fill-opacity:1;stroke-width:1.36725" /></svg>
