<?xml version="1.0" encoding="iso-8859-1"?>
<!-- Uploaded to: SVG Repo, www.svgrepo.com, Generator: SVG Repo Mixer Tools -->
<svg fill="#000000" height="800px" width="800px" version="1.1" id="Layer_1" xmlns="http://www.w3.org/2000/svg" xmlns:xlink="http://www.w3.org/1999/xlink" 
	 viewBox="0 0 512 512" xml:space="preserve">
<g transform="translate(1 1)">
	<g>
		<g>
			<path d="M455.966,495.64l-76.738-55.81c11.993-5.308,20.418-17.33,20.418-31.23v-76.8V195.267v-76.8
				c0-18.773-15.36-34.133-34.133-34.133h-45.511l-15.076-45.227c-0.853-3.413-4.267-5.973-7.68-5.973h-5.12l19.627-19.627
				c3.413-3.413,3.413-8.533,0-11.947s-8.533-3.413-11.947,0l-31.573,31.573h-27.307l19.627-19.627
				c3.413-3.413,3.413-8.533,0-11.947s-8.533-3.413-11.947,0l-31.573,31.573h-13.653c-3.413,0-6.827,2.56-7.68,5.973l-15.076,45.227
				h-45.511c-18.773,0-34.133,15.36-34.133,34.133v76.8V331.8v76.8c0,14.291,8.905,26.596,21.437,31.661L53.193,495.64
				c-2.56,2.56-3.413,5.973-2.56,9.387c0.853,3.413,4.267,5.973,7.68,5.973h392.533c3.413,0,6.827-2.56,8.533-5.973
				C460.233,501.613,459.379,498.2,455.966,495.64z M186.313,459.8v-17.067h128V459.8H186.313z M314.313,476.867v17.067h-128
				v-17.067H314.313z M169.246,459.8h-43.52l21.333-17.067h22.187V459.8z M331.379,442.733h23.893l23.325,17.067h-47.218V442.733z
				 M118.046,203.8h264.533v119.467H118.046V203.8z M209.353,50.2h81.92l11.093,34.133H198.259L209.353,50.2z M118.046,118.467
				c0-9.387,7.68-17.067,17.067-17.067h51.2h128h51.2c9.387,0,17.067,7.68,17.067,17.067v68.267H118.046V118.467z M118.046,340.333
				h264.533V408.6c0,9.387-7.68,17.067-17.067,17.067h-8.533H143.646h-8.533c-9.387,0-17.067-7.68-17.067-17.067V340.333z
				 M104.393,476.867h64.853v17.067H83.059L104.393,476.867z M331.379,493.933v-17.067h68.267v-1.665l25.6,18.732H331.379z"/>
			<path d="M160.713,408.6c14.507,0,25.6-11.093,25.6-25.6c0-14.507-11.093-25.6-25.6-25.6c-14.507,0-25.6,11.093-25.6,25.6
				C135.113,397.507,146.206,408.6,160.713,408.6z M160.713,374.467c5.12,0,8.533,3.413,8.533,8.533s-3.413,8.533-8.533,8.533
				s-8.533-3.413-8.533-8.533S155.593,374.467,160.713,374.467z"/>
			<path d="M339.913,408.6c14.507,0,25.6-11.093,25.6-25.6c0-14.507-11.093-25.6-25.6-25.6c-14.507,0-25.6,11.093-25.6,25.6
				C314.313,397.507,325.406,408.6,339.913,408.6z M339.913,374.467c5.12,0,8.533,3.413,8.533,8.533s-3.413,8.533-8.533,8.533
				s-8.533-3.413-8.533-8.533S334.793,374.467,339.913,374.467z"/>
			<path d="M314.313,118.467h-128c-5.12,0-8.533,3.413-8.533,8.533v34.133c0,5.12,3.413,8.533,8.533,8.533h128
				c5.12,0,8.533-3.413,8.533-8.533V127C322.846,121.88,319.433,118.467,314.313,118.467z M305.779,152.6H194.846v-17.067h110.933
				V152.6z"/>
		</g>
	</g>
</g>
</svg>